<svg width="64" height="64" viewBox="0 0 64 64" fill="none" xmlns="http://www.w3.org/2000/svg">
  <defs>
    <linearGradient id="b" x1="10" y1="10" x2="56" y2="58" gradientUnits="userSpaceOnUse">
      <stop stop-color="#F5D6B3"/>
      <stop offset="1" stop-color="#F1B98F"/>
    </linearGradient>
  </defs>
  <rect width="64" height="64" rx="32" fill="#E9F5F4"/>
  <path d="M32 36c7.7 0 14-6.3 14-14S39.7 8 32 8 18 14.3 18 22s6.3 14 14 14z" fill="url(#b)"/>
  <path d="M14 58c3.8-9.3 10.6-14 18-14s14.2 4.7 18 14" fill="#CFE9E7"/>
  <path d="M22 24c2.2-2.6 5.4-3.9 10-3.9s7.8 1.3 10 3.9" stroke="#6A3E2D" stroke-width="2" stroke-linecap="round"/>
  <path d="M26 28c1.4 1.2 3.2 1.8 6 1.8s4.6-.6 6-1.8" stroke="#6A3E2D" stroke-width="2" stroke-linecap="round"/>
  <path d="M19 22c1-9 7.8-14 13-14s12 5 13 14c0 0-3-7-13-7s-13 7-13 7z" fill="#3C3B4B"/>
</svg>
