<svg width="128" height="128" viewBox="0 0 128 128" fill="none" xmlns="http://www.w3.org/2000/svg">
  <defs>
    <linearGradient id="g" x1="18" y1="14" x2="110" y2="118" gradientUnits="userSpaceOnUse">
      <stop stop-color="#34C6C4"/>
      <stop offset="1" stop-color="#1AA9A8"/>
    </linearGradient>
  </defs>
  <rect x="10" y="10" width="108" height="108" rx="28" fill="#FFFFFF"/>
  <path d="M42 80c0-18 14-32 32-32 10.8 0 20.4 5 26.6 12.8-1.8 18.4-17.4 32.2-36.2 32.2H42V80z" fill="url(#g)"/>
  <path d="M86 36c-20 0-36 16-36 36v6c0 9.4 7.6 17 17 17h6c20 0 36-16 36-36v-6c0-9.4-7.6-17-17-17h-6z" fill="#E6FAFA"/>
  <path d="M76 46c-12.7 0-23 10.3-23 23v2c0 6.6 5.4 12 12 12h2c12.7 0 23-10.3 23-23v-2c0-6.6-5.4-12-12-12h-2z" fill="#1AA9A8" opacity="0.22"/>
</svg>
